HIERARCHY
ROOT Hips
{
	OFFSET -0.001795 -0.223333 0.028219
	CHANNELS 6 Xposition Yposition Zposition Zrotation Yrotation Xrotation 
	JOINT LeftUpLeg
	{
		OFFSET 0.069520 -0.091406 -0.006815
		CHANNELS 3 Zrotation Yrotation Xrotation
		JOINT LeftLeg
		{
			OFFSET 0.034277 -0.375199 -0.004496
			CHANNELS 3 Zrotation Yrotation Xrotation
			JOINT LeftFoot
			{
				OFFSET -0.013596 -0.397961 -0.043693
				CHANNELS 3 Zrotation Yrotation Xrotation
				JOINT LeftToe
				{
					OFFSET 0.026358 -0.055791 0.119288
					CHANNELS 3 Zrotation Yrotation Xrotation
					End Site
					{
						OFFSET 0.000000 0.000000 0.000000
					}
				}
			}
		}
	}
	JOINT RightUpLeg
	{
		OFFSET -0.067670 -0.090522 -0.004320
		CHANNELS 3 Zrotation Yrotation Xrotation
		JOINT RightLeg
		{
			OFFSET -0.038290 -0.382569 -0.008850
			CHANNELS 3 Zrotation Yrotation Xrotation
			JOINT RightFoot
			{
				OFFSET 0.015774 -0.398415 -0.042312
				CHANNELS 3 Zrotation Yrotation Xrotation
				JOINT RightToe
				{
					OFFSET -0.025372 -0.048144 0.123348
					CHANNELS 3 Zrotation Yrotation Xrotation
					End Site
					{
						OFFSET 0.000000 0.000000 0.000000
					}
				}
			}
		}
	}
	JOINT Spine
	{
		OFFSET -0.002533 0.108963 -0.026696
		CHANNELS 3 Zrotation Yrotation Xrotation
		JOINT Spine1
		{
			OFFSET 0.005487 0.135180 0.001092
			CHANNELS 3 Zrotation Yrotation Xrotation
			JOINT Spine2
			{
				OFFSET 0.001457 0.052922 0.025425
				CHANNELS 3 Zrotation Yrotation Xrotation
				JOINT Neck
				{
					OFFSET -0.002778 0.213870 -0.042857
					CHANNELS 3 Zrotation Yrotation Xrotation
					JOINT Head
					{
						OFFSET 0.005152 0.064970 0.051349
						CHANNELS 3 Zrotation Yrotation Xrotation
						End Site
						{
							OFFSET 0.000000 0.000000 0.000000
						}
					}
				}
				JOINT LeftShoulder
				{
					OFFSET 0.078845 0.121749 -0.034090
					CHANNELS 3 Zrotation Yrotation Xrotation
					JOINT LeftArm
					{
						OFFSET 0.090977 0.030469 -0.008868
						CHANNELS 3 Zrotation Yrotation Xrotation
						JOINT LeftForeArm
						{
							OFFSET 0.259612 -0.012772 -0.027456
							CHANNELS 3 Zrotation Yrotation Xrotation
							JOINT LeftHand
							{
								OFFSET 0.249234 0.008986 -0.001171
								CHANNELS 3 Zrotation Yrotation Xrotation
								End Site
								{
									OFFSET 0.000000 0.000000 0.000000
								}
							}
						}
					}
				}
				JOINT RightShoulder
				{
					OFFSET -0.081759 0.118833 -0.038615
					CHANNELS 3 Zrotation Yrotation Xrotation
					JOINT RightArm
					{
						OFFSET -0.096012 0.032551 -0.009143
						CHANNELS 3 Zrotation Yrotation Xrotation
						JOINT RightForeArm
						{
							OFFSET -0.253742 -0.013329 -0.021401
							CHANNELS 3 Zrotation Yrotation Xrotation
							JOINT RightHand
							{
								OFFSET -0.255298 0.007772 -0.005559
								CHANNELS 3 Zrotation Yrotation Xrotation
								End Site
								{
									OFFSET 0.000000 0.000000 0.000000
								}
							}
						}
					}
				}
			}
		}
	}
}
MOTION
Frames: 13
Frame Time: 0.050000
0.059749 0.942810 -0.080771 -3.114435 33.169164 -0.258020 9.585002 -1.201766 -12.912622 -4.298299 -0.680687 15.464893 1.500627 8.779485 9.248416 0.000000 0.000000 0.000000 -3.367551 0.040976 -19.460597 1.416636 -1.597151 19.829539 -3.134444 -6.758815 12.972810 0.000000 0.000000 0.000000 1.599670 -2.131353 18.475932 -5.807162 1.725191 7.409294 -8.203890 8.066737 8.978834 12.390433 -4.486301 -15.026240 0.000000 0.000000 0.000000 12.281440 -43.855799 10.992039 25.835694 -34.697121 -11.418394 37.702118 -3.538378 -2.260319 0.000000 0.000000 0.000000 -18.136893 33.610945 6.568899 -24.908131 56.774082 -9.722445 -43.495266 -0.624122 1.800669 0.000000 0.000000 0.000000 
0.057154 0.943282 -0.079955 -3.202062 33.855226 -0.211974 9.704432 -1.237449 -13.142096 -4.099519 -0.724258 15.382218 1.016428 8.123993 9.328230 0.000000 0.000000 0.000000 -3.135518 0.060269 -19.494469 1.282804 -1.595651 19.820921 -3.437814 -7.236108 12.970306 0.000000 0.000000 0.000000 1.238911 -2.083574 18.453821 -5.825155 1.686770 7.512493 -8.343686 7.945619 9.069489 12.535757 -4.537146 -15.146613 0.000000 0.000000 0.000000 12.719314 -43.961155 10.929970 26.088712 -34.838925 -11.609855 38.116749 -3.690225 -2.367031 0.000000 0.000000 0.000000 -18.391365 33.373319 6.392829 -24.569934 57.614993 -9.689014 -44.728993 -1.907567 2.372329 0.000000 0.000000 0.000000 
0.054778 0.943868 -0.078960 -3.358811 34.534347 -0.074341 9.761363 -1.280022 -13.449717 -3.730240 -0.786444 15.237924 0.703342 7.726617 9.392852 0.000000 0.000000 0.000000 -2.957494 0.063715 -19.599614 1.415497 -1.637138 19.434139 -3.772791 -7.764153 13.010352 0.000000 0.000000 0.000000 0.866984 -2.034854 18.429891 -5.829588 1.657016 7.470147 -8.456795 8.021910 8.949098 12.475362 -4.428408 -15.234380 0.000000 0.000000 0.000000 12.474332 -44.269722 11.018931 26.439279 -35.196316 -11.949659 38.542950 -4.243078 -2.566821 0.000000 0.000000 0.000000 -18.163847 32.918125 6.361630 -23.933751 58.531136 -9.517235 -46.253408 -2.443968 2.727816 0.000000 0.000000 0.000000 
0.052701 0.944062 -0.077810 -3.642668 35.393723 -0.275103 9.882691 -1.309757 -13.544567 -3.558612 -0.838675 15.242800 0.525699 7.453408 9.312107 0.000000 0.000000 0.000000 -2.606561 0.097951 -19.666174 1.460263 -1.721063 19.481064 -4.149622 -8.368616 12.988504 0.000000 0.000000 0.000000 0.820796 -2.067916 18.506799 -5.818494 1.608761 7.493716 -8.775573 8.269091 8.988427 12.916135 -4.728279 -15.068769 0.000000 0.000000 0.000000 12.418847 -45.148176 11.156974 26.700922 -35.282633 -12.171496 38.983882 -4.325747 -2.640067 0.000000 0.000000 0.000000 -17.895597 32.716808 6.418053 -22.782343 58.554826 -8.863260 -47.255622 -2.646796 2.966584 0.000000 0.000000 0.000000 
0.050999 0.943859 -0.076796 -3.798433 36.032063 -0.485418 9.988885 -1.337226 -13.717456 -3.516938 -0.901982 15.581173 0.485047 7.413647 9.298509 0.000000 0.000000 0.000000 -2.468695 0.109547 -19.480499 1.660335 -1.862037 19.618982 -4.462605 -8.913481 12.801920 0.000000 0.000000 0.000000 0.761221 -2.107789 18.673531 -5.928350 1.613345 7.659599 -9.047342 8.218028 8.864635 12.825817 -4.671385 -14.995932 0.000000 0.000000 0.000000 12.461044 -45.460436 11.191761 26.869386 -35.407821 -12.309739 38.947190 -4.478145 -2.679781 0.000000 0.000000 0.000000 -17.973301 32.608731 6.358649 -22.008077 58.529924 -8.422975 -47.883748 -2.569521 3.026960 0.000000 0.000000 0.000000 
0.049819 0.943362 -0.076154 -3.699819 36.601191 -0.662049 10.125462 -1.355038 -13.760085 -3.592293 -0.922746 15.714417 0.433903 7.409332 9.382269 0.000000 0.000000 0.000000 -2.451487 0.082282 -19.471543 1.914667 -2.080608 20.138340 -4.815300 -9.580285 12.459828 0.000000 0.000000 0.000000 0.622475 -2.140888 18.897171 -6.145125 1.668962 7.858246 -9.354581 8.482389 8.818901 13.310867 -4.977052 -14.978693 0.000000 0.000000 0.000000 12.437115 -46.443567 11.331145 26.956006 -35.257198 -12.312766 38.767540 -4.474462 -2.651456 0.000000 0.000000 0.000000 -18.282726 32.256958 6.124483 -20.628211 58.146993 -7.534502 -47.914913 -1.994720 2.879602 0.000000 0.000000 0.000000 
0.049164 0.943242 -0.075984 -3.723960 36.866656 -0.750766 10.051495 -1.368686 -13.920920 -3.598003 -0.970102 16.047551 0.585885 7.631632 9.341874 0.000000 0.000000 0.000000 -2.391217 0.069903 -19.687152 1.894302 -2.166620 20.616832 -4.806147 -9.536977 12.545823 0.000000 0.000000 0.000000 0.589154 -2.158237 18.982343 -6.444545 1.756377 8.197441 -9.590355 8.491859 8.598699 13.350610 -5.034325 -14.880398 0.000000 0.000000 0.000000 12.368231 -46.775539 11.390204 26.906809 -35.345372 -12.316327 38.431336 -4.542165 -2.619386 0.000000 0.000000 0.000000 -18.512151 32.222798 6.034537 -20.154568 57.419749 -7.139357 -47.545385 -1.215547 2.574807 0.000000 0.000000 0.000000 
0.048965 0.943506 -0.076067 -3.740155 37.087569 -0.842779 9.870568 -1.370108 -13.937953 -3.717802 -0.961122 16.053787 0.643369 7.818508 9.488598 0.000000 0.000000 0.000000 -2.425013 0.043015 -19.753606 2.076537 -2.311665 20.954171 -4.948310 -9.795056 12.540370 0.000000 0.000000 0.000000 0.627051 -2.189772 19.085184 -6.755335 1.889046 8.245154 -9.825645 8.566855 8.619519 13.580876 -5.226623 -14.769667 0.000000 0.000000 0.000000 12.157900 -47.474986 11.523024 26.726706 -35.219018 -12.164002 38.238573 -4.555029 -2.590040 0.000000 0.000000 0.000000 -18.794956 32.004067 5.849079 -19.608004 56.760878 -6.700248 -47.224695 -0.274048 2.225105 0.000000 0.000000 0.000000 
0.049142 0.943966 -0.076308 -3.665293 37.256435 -0.768070 9.734349 -1.362735 -13.810640 -3.581966 -0.938955 15.652465 0.568970 7.860159 9.732134 0.000000 0.000000 0.000000 -2.488971 0.028781 -19.598762 2.383685 -2.410381 20.741790 -5.085242 -10.047532 12.499683 0.000000 0.000000 0.000000 0.736954 -2.216484 19.098879 -7.022759 1.968104 8.526469 -10.003714 8.471740 8.550582 13.481757 -5.135580 -14.840799 0.000000 0.000000 0.000000 12.174985 -47.508559 11.529861 26.486210 -35.477198 -12.175477 38.648742 -4.294157 -2.553641 0.000000 0.000000 0.000000 -19.480748 31.852078 5.533548 -19.372360 55.962178 -6.378824 -46.940632 0.339703 2.018952 0.000000 0.000000 0.000000 
0.049302 0.944718 -0.076565 -3.729396 37.201426 -0.893945 9.629468 -1.335299 -13.511987 -3.439314 -0.920489 15.330125 0.578718 7.994960 9.945665 0.000000 0.000000 0.000000 -2.435543 0.062892 -19.295461 2.688528 -2.455625 20.310993 -5.267548 -10.411339 12.436520 0.000000 0.000000 0.000000 0.819657 -2.214675 19.028565 -7.162683 2.014043 8.707714 -10.180631 8.655103 8.534548 13.648413 -5.190690 -14.989962 0.000000 0.000000 0.000000 12.239274 -47.622803 11.534235 26.410189 -35.668582 -12.251356 39.137258 -4.024650 -2.529278 0.000000 0.000000 0.000000 -19.396294 31.826124 5.554704 -19.739568 55.268724 -6.412913 -46.491259 1.015302 1.746592 0.000000 0.000000 0.000000 
0.049243 0.945195 -0.076869 -3.669200 37.321526 -0.938790 9.642829 -1.324070 -13.325860 -3.442655 -0.883645 14.995558 0.470175 7.974590 10.183707 0.000000 0.000000 0.000000 -2.339446 0.096613 -19.004881 2.795519 -2.463791 20.035885 -5.406248 -10.690335 12.269467 0.000000 0.000000 0.000000 0.814754 -2.245746 19.183711 -7.281006 2.070793 8.681588 -10.401880 8.665369 8.409015 13.850202 -5.198896 -15.357233 0.000000 0.000000 0.000000 12.553090 -47.439843 11.453606 26.620822 -36.130105 -12.584213 39.549349 -3.518910 -2.409630 0.000000 0.000000 0.000000 -19.529625 31.676138 5.464795 -20.106077 55.019218 -6.485436 -46.173858 1.312016 1.621326 0.000000 0.000000 0.000000 
0.048890 0.945409 -0.077133 -3.629557 37.315663 -1.013504 9.758431 -1.304404 -13.021245 -3.449378 -0.844624 14.682903 0.465655 7.968858 10.200302 0.000000 0.000000 0.000000 -2.308263 0.112542 -18.869496 2.917996 -2.486993 19.890153 -5.560522 -10.981888 12.330150 0.000000 0.000000 0.000000 0.731855 -2.255254 19.313328 -7.339191 2.113384 8.625428 -10.508764 8.803897 8.500530 14.035198 -5.071250 -16.062721 0.000000 0.000000 0.000000 13.373216 -47.140407 11.259453 26.871737 -36.294146 -12.844244 39.871990 -2.879932 -2.277802 0.000000 0.000000 0.000000 -20.106667 31.526431 5.175647 -20.727815 54.808930 -6.592975 -45.738933 1.355098 1.582660 0.000000 0.000000 0.000000 
0.048394 0.945334 -0.077313 -3.628773 37.435069 -1.173009 9.875053 -1.300099 -12.906407 -3.582731 -0.828715 14.689014 0.598355 8.174070 10.216732 0.000000 0.000000 0.000000 -2.019979 0.169811 -18.936261 2.899267 -2.488095 19.885831 -5.667969 -11.185076 12.271546 0.000000 0.000000 0.000000 0.688560 -2.282777 19.479363 -7.366388 2.135977 8.558248 -10.645049 8.922698 8.497961 14.350206 -5.208012 -16.262364 0.000000 0.000000 0.000000 13.860769 -47.105309 11.163205 27.144647 -36.128270 -12.938861 39.871441 -2.491430 -2.172726 0.000000 0.000000 0.000000 -20.444851 31.427037 5.009988 -21.330626 54.645698 -6.732526 -45.449404 1.670743 1.452185 0.000000 0.000000 0.000000 
